<svg xmlns="http://www.w3.org/2000/svg" xmlns:xlink="http://www.w3.org/1999/xlink" width="180" height="144" viewBox="0 0 180 144"><path fill="#CFD5D8" d="M154.2 107.1c0 2-1.6 3.6-3.6 3.6H14.8c-2 0-3.6-1.6-3.6-3.6V14.3c0-2 1.6-3.6 3.6-3.6h135.8c2 0 3.6 1.6 3.6 3.6v92.8z"/><path fill="#44515A" d="M154.2 14.3v81.4h-143V14.3c0-2 1.6-3.6 3.6-3.6h135.8c2 0 3.6 1.6 3.6 3.6z"/><path fill="#78888D" d="M147.2 85.1c0 2-1.6 3.6-3.6 3.6H21.8c-2 0-3.6-1.6-3.6-3.6V21.3c0-2 1.6-3.6 3.6-3.6h121.8c2 0 3.6 1.6 3.6 3.6v63.8z"/><path opacity=".5" fill="#F3F3F3" d="M31.2 20.7h111v2h-111zm-2 1c0-.6-.4-1-1-1s-1 .4-1 1 .4 1 1 1 1-.5 1-1zm-4 0c0-.6-.4-1-1-1s-1 .4-1 1 .4 1 1 1 1-.5 1-1z"/><defs><path id="a" d="M147.2 85.1c0 2-1.6 3.6-3.6 3.6H21.8c-2 0-3.6-1.6-3.6-3.6V21.3c0-2 1.6-3.6 3.6-3.6h121.8c2 0 3.6 1.6 3.6 3.6v63.8z"/></defs><clipPath id="b"><use xlink:href="#a" overflow="visible"/></clipPath><path opacity=".5" clip-path="url(#b)" fill="#F3F3F3" d="M18.2 25.7h129v64h-129z"/><path fill="#CFD5D8" d="M101.2 108.7c0-7.5-13.9-2.5-18.5-.6-4.6-1.9-18.5-6.9-18.5.6 0 13-8 24-8 24h53s-8-11-8-24z"/><path fill="#CFD5D8" d="M102.2 116.7H63.3c.4-1.9.8-3.9.9-6h37.1c.1 2.1.4 4.1.9 6z"/><path fill="#9FAEB4" d="M54.2 129.7h57v3h-57z"/><path fill="#EEE" d="M25.2 37.7h115v51h-115zm0-8h15v4h-15zm62 2h11v2h-11zm14 0h11v2h-11zm14 0h11v2h-11zm14 0h11v2h-11z"/><path opacity=".3" fill="#9FAEB4" d="M102.2 116.7H63.3c.4-1.9.8-3.9.9-6h37.1c.1 2.1.4 4.1.9 6z"/><path fill="#78888D" d="M99.8 132.7c-2 0-3.6-1.6-3.6-3.6V56.3c0-2 1.6-3.6 3.6-3.6h58.8c2 0 3.6 1.6 3.6 3.6v72.8c0 2-1.6 3.6-3.6 3.6H99.8z"/><path fill="#44515A" d="M99.8 132.7c-2 0-3.6-1.6-3.6-3.6V56.3c0-2 1.6-3.6 3.6-3.6h58.8c2 0 3.6 1.6 3.6 3.6v72.8c0 2-1.6 3.6-3.6 3.6H99.8z" opacity=".6"/><path fill="#78888D" d="M103.2 61.7h51v8h-51z"/><path opacity=".5" fill="#F3F3F3" d="M112.2 64.7h38.9v2h-38.9zm-2 1c0-.6-.4-1-1-1s-1 .4-1 1 .4 1 1 1 1-.5 1-1zm-3 0c0-.6-.4-1-1-1s-1 .4-1 1 .4 1 1 1 1-.5 1-1zm-4 4h51v53h-51z"/><path fill="#EEE" d="M106.2 81.7h45v41h-45zm0-8h9v4h-9zm11 2h7v2h-7zm9 0h7v2h-7zm9 0h7v2h-7zm9 0h7v2h-7z"/><path fill="#44515A" d="M140.8 132.7c-2 0-3.6-1.6-3.6-3.6V89.3c0-2 1.6-3.6 3.6-3.6h23.8c2 0 3.6 1.6 3.6 3.6v39.8c0 2-1.6 3.6-3.6 3.6h-23.8z"/><path opacity=".5" fill="#F3F3F3" d="M141.2 90.7h23v37h-23z"/><path fill="#EEE" d="M144.2 100.7h17v27h-17zm0-7h9v4h-9z"/></svg>