<svg xmlns="http://www.w3.org/2000/svg" width="100" height="100" viewBox="0 0 100 100"><path fill="#57666d" d="M94 6H6c-3.313 0-6 2.687-6 6v76c0 3.313 2.687 6 6 6h88c3.314 0 6-2.688 6-6V12c0-3.314-2.686-6-6-6zm-15 4c2.205 0 4 1.794 4 4s-1.795 4-4 4-4-1.794-4-4 1.795-4 4-4zm-11 0c2.205 0 4 1.794 4 4s-1.795 4-4 4-4-1.794-4-4 1.795-4 4-4zM32.674 88C34.1 79.712 41.304 73.4 50 73.4c8.695 0 15.898 6.312 17.325 14.6h-34.65zM94 85.72c0-1.942-1.576-3.478-3.52-3.478h-6.395c-.833-3.203-2.12-6.288-3.774-9.088l4.537-4.545c1.375-1.377 1.375-3.61 0-4.985l-7.468-7.47c-1.376-1.375-3.605-1.377-4.98-.002l-4.557 4.535c-2.8-1.657-5.884-2.943-9.088-3.776V50.52c0-1.942-1.532-3.52-3.478-3.52H44.72c-1.944 0-3.477 1.576-3.477 3.52v6.396c-3.204.833-6.29 2.12-9.087 3.774l-4.546-4.535c-1.375-1.375-3.61-1.375-4.983 0l-7.47 7.468c-1.375 1.375-1.376 3.604 0 4.98l4.534 4.554c-1.654 2.8-2.94 5.885-3.773 9.088H9.52c-1.944 0-3.52 1.533-3.52 3.48V22h88v63.72zM90 18c-2.205 0-4-1.794-4-4s1.795-4 4-4 4 1.794 4 4-1.795 4-4 4z"/></svg>