<svg xmlns="http://www.w3.org/2000/svg" width="100" height="100" viewBox="0 0 100 100"><g fill="#57666d"><path d="M94.76 31.627l-2.014.834c-.68-.9-1.487-1.702-2.374-2.37l.835-2.02c.254-.613-.038-1.317-.65-1.57l-3.325-1.38c-.612-.252-1.314.038-1.568.65l-.844 2.02c-1.098-.154-2.236-.16-3.354 0l-.834-2.015c-.254-.613-.942-.91-1.555-.655l-3.327 1.377c-.61.253-.89.95-.635 1.562l.834 2.012c-.9.68-1.706 1.488-2.37 2.375l-2.024-.835c-.612-.254-1.316.038-1.57.65L68.61 35.59c-.255.612.035 1.314.647 1.567L71.28 38c-.158 1.098-.16 2.237-.005 3.354l-2.014.834c-.61.253-.907.942-.653 1.555l1.378 3.325c.253.613.95.89 1.563.636l2.014-.834c.682.9 1.487 1.704 2.375 2.37l-.835 2.024c-.254.613.038 1.316.65 1.57l3.325 1.38c.613.253 1.314-.038 1.568-.65l.844-2.022c1.097.156 2.235.158 3.354.004l.834 2.014c.253.612.94.908 1.553.654l3.327-1.377c.612-.254.89-.95.636-1.563l-.834-2.013c.9-.68 1.703-1.486 2.37-2.373l2.02.835c.613.255 1.317-.037 1.57-.65l1.38-3.324c.253-.613-.037-1.315-.65-1.568l-2.022-.844c.157-1.097.16-2.236.004-3.354l2.015-.834c.613-.254.91-.942.655-1.555l-1.377-3.324c-.254-.616-.95-.893-1.562-.64zM85.45 45.21c-3.063 1.268-6.572-.186-7.84-3.248-1.27-3.062.185-6.57 3.247-7.84 3.062-1.267 6.57.187 7.84 3.25 1.268 3.06-.186 6.57-3.248 7.838z"/><path d="M80.153 57.488V84h-44V17h44v4.82h5V8c0-4.418-3.582-8-8-8h-38c-4.418 0-8 3.582-8 8v84c0 4.418 3.582 8 8 8h38c4.418 0 8-3.582 8-8V57.488h-5zM54.186 9h8c.553 0 1 .448 1 1s-.447 1-1 1h-8c-.552 0-1-.448-1-1s.448-1 1-1zm3.667 86.266c-2.21 0-4-1.79-4-4s1.79-4 4-4 4 1.79 4 4-1.79 4-4 4zM2.208 25.528h24v5h-24zm6 10h18v5h-18zm12 10h6v5h-6z"/></g></svg>