
<?xml version="1.0"?>
<svg width="80" height="80" xmlns="http://www.w3.org/2000/svg" xmlns:svg="http://www.w3.org/2000/svg">
 <g>
  <title>Layer 1</title>
  <g stroke="null" id="svg_1" fill="#57666d">
   <path stroke="null" id="svg_2" d="m16.430098,49.453178c3.56835,-2.368908 7.531137,-3.789791 11.3636,-5.056126c0.551281,-0.17992 1.100262,-0.423267 1.649239,-0.605492l0.11187,-0.069202c0.810783,-0.282558 1.577732,-0.565121 2.205139,-0.911114c0.028828,-0.069202 0.069195,-0.184532 0.119942,-0.369061c-3.155464,-4.601723 -5.300629,-11.725746 -5.300629,-17.825619c0,-5.173765 1.626171,-9.010839 4.691681,-11.343994c-1.324009,-0.67123 -2.924805,-0.928418 -4.645548,-0.928418c-4.586731,0 -8.30386,1.831462 -8.30386,8.409966c0,4.36875 1.637703,9.725891 4.082731,12.836376c-0.025372,0.245659 -0.053055,0.49247 -0.098036,0.738121c-0.146469,0.668926 -0.38059,1.416271 -1.003382,1.78764c-0.701212,0.415195 -1.480852,0.680458 -2.246655,0.948025c-3.176226,1.069122 -6.463171,2.011375 -9.280714,3.886665c-1.464709,0.96302 -2.46002,2.883286 -3.00669,4.52676c-0.565124,1.710361 -0.795787,3.379204 -0.761187,5.685833l8.661387,0c0.550129,-1.153313 1.136011,-1.296322 1.759954,-1.706905l0.001156,-0.003456zm55.002687,-8.438801c-2.819855,-1.872982 -6.106804,-2.846375 -9.28418,-3.915501c-0.764648,-0.267567 -1.545433,-0.548973 -2.244347,-0.965321c-0.626247,-0.371368 -0.860374,-1.130245 -1.003387,-1.796864c-0.064583,-0.354069 -0.103794,-0.715054 -0.122246,-1.072578c2.30201,-3.148552 3.829002,-8.29233 3.829002,-12.50769c0,-6.580809 -3.717129,-8.413424 -8.30386,-8.413424c-1.744965,0 -3.359604,0.26757 -4.697449,0.957251c3.04129,2.337767 4.653622,6.162153 4.653622,11.314009c0,5.939566 -1.995232,12.778715 -5.022682,17.415037c0.011532,0.050743 0.019604,0.103798 0.026524,0.154541c0.078426,0.360989 0.144165,0.548981 0.184532,0.643555c0.664307,0.369057 1.460098,0.659691 2.346992,0.973392l1.328617,0.441719c3.9328,1.303246 7.99939,2.883286 11.660011,5.316776c0.593956,0.385208 1.153313,0.449791 1.67691,1.603107l8.742119,0c0.032295,-2.306629 -0.198364,-3.976624 -0.761192,-5.685837c-0.546669,-1.643475 -1.539673,-3.499157 -3.004379,-4.463326l-0.004608,0.001152z"/>
   <path stroke="null" id="svg_3" d="m63.258095,51.646782c-3.7598,-2.493469 -8.142395,-3.805935 -12.375061,-5.230278c-1.022984,-0.357529 -2.059814,-0.738121 -2.993996,-1.295174c-0.836155,-0.495926 -1.146393,-1.505074 -1.340157,-2.396584c-0.084187,-0.472858 -0.138393,-0.954945 -0.164921,-1.432419c3.070122,-4.198059 5.106873,-11.054512 5.106873,-16.676914c0,-8.773258 -4.955788,-11.218285 -11.071812,-11.218285s-11.071808,2.442719 -11.071808,11.215975c0,5.824236 2.18322,12.967863 5.440178,17.115175c-0.029987,0.327541 -0.069199,0.653931 -0.126865,0.982624c-0.19606,0.888054 -0.507458,1.891434 -1.337845,2.383904c-0.937641,0.553589 -1.974472,0.907654 -2.998611,1.268642c-4.232664,1.423191 -8.615257,2.681454 -12.372753,5.178379c-1.957172,1.283638 -3.28233,3.771332 -4.013533,5.962631c-0.749653,2.27203 -1.061049,5.189915 -1.014915,7.49654l55.360212,0c0.046135,-2.306625 -0.262947,-5.22451 -1.014915,-7.5c-0.730049,-2.1936 -2.052902,-4.56366 -4.006607,-5.851913l-0.003464,-0.002304z"/>
  </g>
 </g>
</svg>