<svg xmlns="http://www.w3.org/2000/svg" width="120" height="120" viewBox="0 0 80 80"><g fill="#57666d"><path d="M29.04 59.52c3.094-2.054 6.53-3.286 9.853-4.384.478-.156.954-.367 1.43-.525l.097-.06c.703-.245 1.368-.49 1.912-.79.025-.06.06-.16.104-.32-2.736-3.99-4.596-10.167-4.596-15.456 0-4.486 1.41-7.813 4.068-9.836-1.148-.582-2.536-.805-4.028-.805-3.977 0-7.2 1.588-7.2 7.292 0 3.788 1.42 8.433 3.54 11.13-.022.213-.046.427-.085.64-.127.58-.33 1.228-.87 1.55-.608.36-1.284.59-1.948.822-2.754.927-5.604 1.744-8.047 3.37-1.27.835-2.133 2.5-2.607 3.925-.49 1.483-.69 2.93-.66 4.93h7.51c.477-1 .985-1.124 1.526-1.48zm47.692-7.32c-2.445-1.624-5.295-2.468-8.05-3.395-.663-.232-1.34-.476-1.946-.837-.543-.322-.746-.98-.87-1.558-.056-.307-.09-.62-.106-.93 1.996-2.73 3.32-7.19 3.32-10.845 0-5.706-3.223-7.295-7.2-7.295-1.513 0-2.913.232-4.073.83 2.637 2.027 4.035 5.343 4.035 9.81 0 5.15-1.73 11.08-4.355 15.1.01.044.017.09.023.134.068.313.125.476.16.558.576.32 1.266.572 2.035.844l1.152.383c3.41 1.13 6.936 2.5 10.11 4.61.515.334 1 .39 1.454 1.39H80c.028-2-.172-3.448-.66-4.93-.474-1.425-1.335-3.034-2.605-3.87z"/><path d="M69.643 61.422c-3.26-2.162-7.06-3.3-10.73-4.535-.887-.31-1.786-.64-2.596-1.123-.725-.43-.994-1.305-1.162-2.078-.073-.41-.12-.828-.143-1.242 2.662-3.64 4.428-9.585 4.428-14.46 0-7.607-4.297-9.727-9.6-9.727s-9.6 2.118-9.6 9.725c0 5.05 1.893 11.244 4.717 14.84-.026.284-.06.567-.11.852-.17.77-.44 1.64-1.16 2.067-.813.48-1.712.787-2.6 1.1-3.67 1.234-7.47 2.325-10.728 4.49-1.697 1.113-2.846 3.27-3.48 5.17-.65 1.97-.92 4.5-.88 6.5H74c.04-2-.228-4.53-.88-6.503-.633-1.902-1.78-3.957-3.474-5.074z"/></g></svg>