<svg xmlns="http://www.w3.org/2000/svg" width="100" height="100" viewBox="0 0 100 100"><path fill="#57666d" d="M96 22.6L84.278 12.38 72.556 2.156 60.834 12.38 49.112 22.6H61.94C57.62 49.133 33.107 69.77 5.21 65.383c-1.226-.192-1.723 1.46-.517 1.88C39.41 79.34 79.403 59.49 85.19 22.6H96z"/><path fill="#57666d" d="M70 56.88c-3.604 3.33-7.635 6.234-12 8.662V98.5h12V56.88zM40 98.5h12V68.48c-3.813 1.627-7.827 2.908-12 3.803V98.5zm36 0h12V25.6h-.303C85.814 34.906 81.727 43.327 76 50.44V98.5zM16 73.083c-4.075-.595-8.088-1.552-12-2.894V98.5h12V73.083zM22 98.5h12V73.292c-2.73.33-5.51.505-8.335.505-1.226 0-2.447-.046-3.665-.112V98.5z"/></svg>