<svg xmlns="http://www.w3.org/2000/svg" width="100" height="100" viewBox="0 0 100 100"><g fill="#57666d"><path d="M43.692 60.428L31.006 73.113c-4.615 4.613-12.454 4.285-17.474-.734-5.02-5.023-5.35-12.86-.734-17.477L27.172 40.53c4.615-4.615 12.454-4.285 17.474.734 2.137 2.137 3.415 4.783 3.832 7.475 1.86-.196 3.614-.958 4.98-2.32l.528-.53c-.848-3.223-2.537-6.308-5.1-8.868-7.358-7.36-19.003-7.69-25.957-.734L8.554 50.66C1.6 57.613 1.93 69.26 9.29 76.62s19.003 7.687 25.96.733l14.37-14.37c.814-.815 1.52-1.7 2.136-2.63-2.637.542-5.375.553-8.066.075z"/><path d="M47.502 11.717L33.127 26.09c-.816.817-1.522 1.702-2.138 2.633 2.635-.54 5.374-.557 8.063-.075l12.69-12.69c4.613-4.614 12.453-4.284 17.473.736s5.35 12.858.734 17.473L55.58 48.54c-4.615 4.616-12.453 4.287-17.474-.733-2.137-2.137-3.415-4.785-3.832-7.477-1.86.193-3.615.96-4.98 2.322l-.528.53c.848 3.222 2.537 6.306 5.1 8.867 7.358 7.357 19.003 7.686 25.957.732l14.37-14.372c6.956-6.955 6.626-18.6-.732-25.958s-19.003-7.69-25.957-.735zM77 58.61c-11.046 0-20 8.956-20 20s8.954 20.003 20 20.003c11.047 0 20-8.957 20-20.002s-8.953-20-20-20zm11.75 24.122h-7.396v7.428c0 2.336-1.894 4.227-4.23 4.227s-4.228-1.89-4.228-4.227v-7.428h-7.398c-2.333 0-4.227-1.895-4.227-4.23 0-2.333 1.896-4.227 4.23-4.227h7.397v-7.37c0-2.333 1.894-4.226 4.23-4.226s4.228 1.89 4.228 4.225v7.37h7.397c2.336 0 4.23 1.893 4.23 4.227 0 2.336-1.894 4.23-4.23 4.23z"/></g></svg>