<svg xmlns="http://www.w3.org/2000/svg" width="100" height="100" viewBox="0 0 100 100"><path fill="#57666d" d="M94 6H6c-3.313 0-6 2.687-6 6v76c0 3.313 2.687 6 6 6h88c3.314 0 6-2.688 6-6V12c0-3.314-2.686-6-6-6zm-15 4c2.205 0 4 1.794 4 4s-1.795 4-4 4-4-1.794-4-4 1.795-4 4-4zm-11 0c2.205 0 4 1.794 4 4s-1.795 4-4 4-4-1.794-4-4 1.795-4 4-4zm26 78H6V22h88v66zm-4-70c-2.205 0-4-1.794-4-4s1.795-4 4-4 4 1.794 4 4-1.795 4-4 4z"/><path d="M50.425 31.045c.454-.16.946.092 1.21.467.665.896 1.318 1.803 1.974 2.708.552.764 1.607 1.123 2.51.84 1.13-.365 2.252-.75 3.39-1.09.616-.18 1.276.305 1.305.943.024 1.168.03 2.338.02 3.507-.02.927.606 1.82 1.47 2.147 1.15.378 2.312.73 3.45 1.142.605.21.853 1 .502 1.53-.667.984-1.395 1.93-2.087 2.896-.508.72-.525 1.747-.064 2.494.7.99 1.438 1.956 2.128 2.952.367.52.168 1.32-.434 1.564-1.134.41-2.294.75-3.437 1.143-.81.27-1.422 1.047-1.514 1.893-.02 1.242-.01 2.483-.03 3.725.006.656-.664 1.188-1.304 1.005-1.138-.325-2.253-.728-3.383-1.076-.88-.295-1.932.044-2.482.79-.71.95-1.39 1.924-2.106 2.87-.39.516-1.233.524-1.624.005-.72-.946-1.402-1.92-2.113-2.873-.564-.763-1.64-1.09-2.535-.773-1.083.345-2.16.71-3.247 1.04-.66.237-1.394-.292-1.395-.986-.014-1.142-.008-2.285-.006-3.43.02-.952-.62-1.874-1.522-2.185-1.122-.38-2.256-.73-3.376-1.115-.616-.197-.885-1-.52-1.536.656-.99 1.388-1.93 2.077-2.897.544-.75.542-1.846.01-2.6-.694-.97-1.407-1.926-2.09-2.904-.356-.535-.098-1.322.51-1.536 1.116-.405 2.254-.75 3.385-1.114.8-.276 1.402-1.042 1.51-1.88.044-1.27-.015-2.544.033-3.814.034-.64.708-1.1 1.316-.92 1.138.337 2.26.727 3.394 1.082.92.292 2-.104 2.538-.9.596-.836 1.206-1.66 1.807-2.494.184-.266.41-.53.73-.625zm13.62 29.115c3.673 3.8 7.3 7.642 10.955 11.46-3.123.017-6.245-.004-9.367.01-.014 3.123.003 6.246-.008 9.368-4.26-4.565-8.523-9.125-12.777-13.694.85-.67 1.446-1.578 2.054-2.457.722.165 1.402.475 2.126.635 1.406.32 2.926.104 4.173-.625 1.674-.954 2.71-2.796 2.847-4.696zM25 71.62c3.25-3.395 6.455-6.834 9.74-10.193.623 2.387 2.916 4.212 5.396 4.197 1.223.06 2.35-.458 3.5-.78.815 1.153 1.647 2.362 2.93 3.045-4.064 4.37-8.13 8.736-12.19 13.107-.013-3.122.007-6.244-.01-9.366-3.123-.017-6.244.006-9.366-.01z" fill="#57666d"/></svg>